<svg width="123" height="34" viewBox="0 0 123 34" fill="none" xmlns="http://www.w3.org/2000/svg">
<g clip-path="url(#clip0_0_62)">
<path d="M57.1306 28.4786L51.5998 19.4513H47.2516V28.4786H43.7729V5.05H53.5478C57.9655 5.05 60.9918 7.9303 60.9918 12.2507C60.9918 16.4657 58.1742 18.7138 55.2173 19.1002L61.1659 28.4786H57.1306ZM53.0956 8.14112H47.2516V16.3604H53.0956C55.6002 16.3604 57.4089 14.7095 57.4089 12.2507C57.4089 9.792 55.6002 8.14112 53.0956 8.14112Z" fill="white"/>
<path d="M62.1374 19.9782C62.1374 15.0957 65.4073 11.0916 70.625 11.0916C75.8777 11.0916 79.1128 15.0958 79.1128 19.9782C79.1128 24.8958 75.8777 28.9 70.625 28.9C65.4073 28.9 62.1374 24.8958 62.1374 19.9782ZM75.8429 19.9782C75.8429 16.7818 73.9993 13.9016 70.625 13.9016C67.2856 13.9016 65.4073 16.7818 65.4073 19.9782C65.4073 23.2098 67.2856 26.09 70.625 26.09C73.9993 26.09 75.8429 23.2098 75.8429 19.9782Z" fill="white"/>
<path d="M92.4679 28.4786V26.6168C91.146 28.0922 89.2328 28.9 86.9717 28.9C84.1889 28.9 81.1277 27.0032 81.1277 23.28C81.1277 19.4162 84.154 17.7302 86.9717 17.7302C89.2328 17.7302 91.1808 18.4677 92.4679 19.9781V17.1681C92.4679 15.0606 90.7635 13.7961 88.3631 13.7961C86.45 13.7961 84.8151 14.5337 83.3193 16.0441L81.9626 13.8663C83.841 12.0047 86.1368 11.0914 88.8502 11.0914C92.5027 11.0914 95.5987 12.7072 95.5987 17.0276V28.4784H92.4681L92.4679 28.4786ZM92.4679 21.875C91.5286 20.6104 89.8938 19.9431 88.1544 19.9431C85.8934 19.9431 84.2932 21.313 84.2932 23.3152C84.2932 25.3172 85.8932 26.6872 88.1544 26.6872C89.8938 26.6872 91.5286 26.0198 92.4679 24.7552V21.875Z" fill="white"/>
<path d="M99.666 23.9474C100.814 25.2118 103.04 26.371 105.301 26.371C107.667 26.371 108.919 25.3876 108.919 23.9474C108.919 22.2614 107.006 21.6994 104.849 21.2076C101.997 20.5402 98.6573 19.7674 98.6573 16.1145C98.6573 13.4098 100.953 11.0916 105.058 11.0916C107.945 11.0916 110.032 12.1453 111.458 13.5152L110.067 15.7281C109.093 14.5339 107.215 13.6557 105.093 13.6557C102.971 13.6557 101.649 14.4987 101.649 15.8686C101.649 17.3439 103.458 17.8356 105.545 18.3274C108.467 18.9947 111.945 19.8026 111.945 23.7016C111.945 26.6168 109.58 28.9 105.162 28.9C102.345 28.9 99.8748 28.022 98.1704 26.2656L99.666 23.9474Z" fill="white"/>
<path d="M115.56 24.7202V14.2881H112.778V11.5131H115.56V6.87666H118.691V11.5132H122.1V14.2881H118.691V24.0178C118.691 25.212 119.248 26.0902 120.326 26.0902C121.056 26.0902 121.717 25.774 122.03 25.4228L122.83 27.8114C122.17 28.4436 121.196 28.9002 119.561 28.9002C116.917 28.9002 115.56 27.39 115.56 24.7204L115.56 24.7202Z" fill="white"/>
<path d="M25.5012 33.175C24.8997 33.63 24.1957 33.85 23.4979 33.85C22.4819 33.85 21.4784 33.3844 20.8218 32.5L12.8002 21.7C12.1718 20.8544 11.1725 20.35 10.1263 20.35H3.44151C1.59518 20.35 0.0991211 21.8608 0.0991211 23.725V16.9751C0.0991211 15.1107 1.59518 13.6001 3.44151 13.6001H10.1263C13.2655 13.6001 16.2643 15.1141 18.148 17.6501L26.1697 28.45C27.2775 29.9412 26.978 32.0566 25.5012 33.175Z" fill="#FF6032"/>
<path d="M6.78391 20.35V30.475C6.78391 32.3388 5.28719 33.85 3.44151 33.85C1.59584 33.85 0.0991211 32.3388 0.0991211 30.475V23.725C0.0991211 21.8608 1.59518 20.35 3.44151 20.35H6.78391Z" fill="#FF6032"/>
<path d="M20.1534 10.2251C20.1534 8.36412 18.654 6.8501 16.811 6.8501H3.44142C1.59508 6.8501 0.0990295 5.33878 0.0990295 3.4751C0.0990295 1.61142 1.59508 0.100098 3.44142 0.100098H10.1262C15.6639 0.100098 20.1534 4.6334 20.1534 10.2251Z" fill="#FF6032"/>
<path d="M26.8382 10.2251V13.6001C26.8382 15.4638 25.3414 16.9751 23.4958 16.9751C21.6502 16.9751 20.1534 15.4638 20.1534 13.6001V10.2251C20.1534 4.6334 15.6639 0.100098 10.1262 0.100098H16.811C18.8499 0.100098 20.749 0.717722 22.3339 1.77815C25.046 3.59254 26.8382 6.7016 26.8382 10.2251Z" fill="#FF6032"/>
</g>
<defs>
<clipPath id="clip0_0_62">
<rect width="123" height="34" fill="white"/>
</clipPath>
</defs>
</svg>
